<?xml version="1.0" encoding="UTF-8"?>
<svg xmlns="http://www.w3.org/2000/svg" version="1.1" viewBox="0 0 2625.8 2625.8">
  <defs>
    <style>
      .cls-1 {
        fill: #fff;
      }
    </style>
  </defs>
  <!-- Generator: Adobe Illustrator 28.7.4, SVG Export Plug-In . SVG Version: 1.2.0 Build 166)  -->
  <g>
    <g id="Layer_1">
      <g>
        <path class="cls-1" d="M448.2,1427h-146.7v-163.7h36.5v135.1h110.2v28.6Z"/>
        <path class="cls-1" d="M676.7,1427h-40.2l-15.1-29.6h-110.4l-15.1,29.6h-39.9l82.9-163.7h56.2l81.6,163.7ZM609.5,1369l-43.4-85.9-42.7,85.9h86.1Z"/>
        <path class="cls-1" d="M894.2,1385c0,28-19.5,42-58.5,42h-137.9v-163.7h136.4c36.3,0,54.5,14.2,54.5,42.6s-11.4,33.3-34.2,37.8c26.5,1.7,39.7,15.4,39.7,41.3ZM850.4,1309.6c0-13.8-7.4-20.7-22.2-20.7h-93.7v41.8h95.9c6.2,0,11-2,14.6-5.9,3.6-3.9,5.4-9,5.4-15.2ZM855.5,1381c.7-16.4-8.4-24.7-27.3-24.7h-93.7v44.6h95.9c16,0,24.4-6.7,25.1-20Z"/>
        <path class="cls-1" d="M1177.3,1375.5c0,34.3-21,51.5-63.1,51.5h-140.6v-163.7h139.3c43,0,64.4,17.6,64.4,52.8v59.5ZM1141.2,1359v-26.1c0-16.2-2.2-26.7-6.6-31.5-5-5.9-16.2-8.8-33.5-8.8h-90.7v105.4h88.3c16.5,0,27.7-2.7,33.6-8,5.9-5.3,8.8-15.7,8.8-31Z"/>
        <path class="cls-1" d="M1375.4,1427h-168.9v-163.7h166.9v29h-130v40h122.3v25.8h-122.3v40.3h132.1v28.6Z"/>
        <path class="cls-1" d="M1600.6,1425.3h-146.7v-163.7h36.5v135.1h110.2v28.6Z"/>
        <path class="cls-1" d="M1658.9,1425.3h-36.5v-163.7h36.5v163.7Z"/>
        <path class="cls-1" d="M1904.5,1425.3h-56.5l-116.6-132.7v132.7h-36.8v-163.7h57.9l115.4,134.1v-134.1h36.7v163.7Z"/>
        <path class="cls-1" d="M2105.7,1425.3h-168.9v-163.7h166.9v29h-130v40h122.3v25.8h-122.3v40.3h132.1v28.6Z"/>
        <path class="cls-1" d="M2324.3,1378.9c0,18.9-5.3,32.1-16,39.6-8.9,5.7-23.2,8.5-43.1,8.5h-74.7c-21.1,0-36.1-2.9-45.1-8.7-9-5.8-13.5-15.7-13.5-29.8v-8.2h35.5c0,8.3,3.1,14.1,9.3,17.3,4.1,2.1,10.9,3.2,20.4,3.2h61.7c10.5,0,17.9-1.9,22-5.8,3.4-3.4,5-9.3,5-17.5s-3.1-14.1-9.3-17.3c-4.1-2.1-11-3.3-20.7-3.5l-59.9-1.7c-27.1-.7-44.2-3.5-51.3-8.5-8.7-6.1-13.1-20.5-13.1-43.3s18.5-43.6,55.5-43.6h77c19.1,0,32.6,2.9,40.7,8.8,8.1,5.9,12.1,15.8,12.1,29.6v4.5h-35.5c0-12.1-8.6-18.2-25.9-18.2h-52.7c-11.3,0-19.4,1.2-24.2,3.5-6.4,2.9-9.6,8.9-9.6,18s2.5,14.5,7.6,17.5c4.1,2.4,12.3,3.9,24.6,4.3l69.8,2.5c18.6.7,31.6,3.7,39,9.2,9.4,7,14.1,20.2,14.1,39.5Z"/>
      </g>
    </g>
  </g>
</svg>